<!DOCTYPE svg PUBLIC "-//W3C//DTD SVG 20010904//EN" "http://www.w3.org/TR/2001/REC-SVG-20010904/DTD/svg10.dtd">
<svg version="1.0" xmlns="http://www.w3.org/2000/svg" width="1062px" height="762px" viewBox="0 0 10620 7620" preserveAspectRatio="xMidYMid meet">
<g id="layer101" fill="#1f1a17" stroke="none">
 <path d="M0 3810 l0 -3810 5310 0 5310 0 0 3810 0 3810 -5310 0 -5310 0 0 -3810z"/>
 </g>
<g id="layer102" fill="#ffffff" stroke="none">
 <path d="M0 3810 l0 -3810 5310 0 5310 0 0 3810 0 3810 -5310 0 -5310 0 0 -3810z m6048 63 c275 -450 510 -835 522 -855 l22 -38 -314 0 -314 0 -522 840 c-288 462 -525 847 -528 855 -5 13 35 15 314 15 l320 0 500 -817z m1547 782 c-211 -503 -440 -1042 -445 -1048 -7 -8 -580 6 -787 19 l-92 6 -62 101 c-35 56 -91 149 -127 206 l-64 104 300 -7 299 -7 161 288 c89 158 173 307 187 331 l25 43 309 -3 309 -3 -13 -30z m-2623 -267 c87 -149 156 -273 154 -275 -3 -3 -1249 37 -1253 40 -6 7 -303 498 -303 502 0 3 280 5 623 5 l622 0 157 -272z m-1470 245 c3 -10 160 -268 350 -573 429 -690 678 -1098 678 -1111 0 -6 -115 -8 -307 -7 l-308 3 -121 192 c-66 106 -123 195 -126 198 -3 3 -111 -167 -239 -379 l-234 -386 -309 0 -308 0 14 23 c53 81 753 1262 751 1267 -1 3 -110 180 -242 393 -133 213 -241 389 -241 392 0 3 143 5 319 5 295 0 319 -1 323 -17z m1267 -642 l85 -6 118 -204 c65 -112 116 -206 114 -208 -5 -5 -638 14 -783 23 l-92 6 -62 101 c-35 56 -91 149 -126 206 l-64 103 363 -7 c200 -4 401 -10 447 -14z m2166 -486 c297 -8 579 -15 626 -15 l86 0 139 -241 c77 -133 141 -246 142 -250 2 -5 -284 -9 -637 -9 -471 0 -641 3 -641 11 0 9 -220 375 -298 497 -14 21 -13 22 14 22 16 0 272 -7 569 -15z m-2060 -30 c297 -8 579 -15 626 -15 l86 0 139 -241 c77 -133 141 -246 142 -250 2 -5 -284 -9 -637 -9 -471 0 -641 3 -641 11 0 9 -220 375 -298 497 -14 21 -13 22 14 22 16 0 272 -7 569 -15z"/>
 </g>

</svg>